<svg width="629" height="506" viewBox="0 0 629 506" fill="none" xmlns="http://www.w3.org/2000/svg">
<path d="M628.09 491.01C628.21 488.44 628.3 485.86 628.3 483.27C628.3 359.41 487.65 259 314.15 259C140.65 259 0 359.41 0 483.27C0 485.86 0.0799915 488.44 0.209991 491.01H628.09Z" fill="#EFEFEF"/>
<g clip-path="url(#clip0)">
<path d="M108.19 0C148.9 0 162.64 27.6 162.64 46.78C162.64 86.78 153.98 77.86 153.98 119.2C153.98 163.63 210.9 219.73 210.9 296.47C210.9 401.38 119.33 416.76 108.19 416.76C50.45 416.76 29 353.22 29 314.67C29 269 69.22 220.11 69.22 176.09C69.22 143.89 58.7 131.38 58.7 81.46C58.7 31.26 87.78 0 108.19 0Z" fill="#73E5E2"/>
<path d="M105.15 503.67V66.0601" stroke="#FBDC8E" stroke-width="3" stroke-miterlimit="10" stroke-linecap="round"/>
<path d="M105.15 350.08L172.95 280.59" stroke="#FBDC8E" stroke-width="3" stroke-miterlimit="10" stroke-linecap="round"/>
<path d="M103.46 155.07L81.6201 133.23" stroke="#FBDC8E" stroke-width="3" stroke-miterlimit="10" stroke-linecap="round"/>
<path d="M105.15 96.49L135.64 66.01" stroke="#FBDC8E" stroke-width="3" stroke-miterlimit="10" stroke-linecap="round"/>
</g>
<g clip-path="url(#clip1)">
<path d="M324.48 214.7C354 228.13 357.36 277.87 352 289C343.43 306.77 312.24 332.47 303.85 350.21C300.25 357.82 269.85 437.21 241.48 427.95C216.27 419.67 202.48 383.18 216.72 357.79C237.72 320.24 246.18 270.17 253.62 256.79C263.44 239.18 295.78 201.64 324.48 214.7Z" fill="#50B89D"/>
<path d="M230.93 503.79C230.93 485.61 241.93 340.14 294.25 280.71" stroke="#FBDC8E" stroke-width="3" stroke-miterlimit="10" stroke-linecap="round"/>
<path d="M275.62 308.27L264.29 264.93" stroke="#FBDC8E" stroke-width="3" stroke-miterlimit="10" stroke-linecap="round"/>
</g>
<g clip-path="url(#clip2)">
<path d="M376.36 125.69C430.47 106.68 476.58 181 489 200.75C543.31 287.51 497.47 363.17 473.4 371.85C431.44 387 385.89 318.85 373 297.27C351 260.71 357.84 209.53 355.4 193.93C352.96 178.33 361.93 130.76 376.36 125.69Z" fill="#8E554A"/>
<path d="M516.26 33.56C550.38 28.68 570.15 56.91 576.26 73.04C586.15 99.36 607.46 113.5 607.46 147.13C607.46 225.61 559.69 288.49 538.24 288.49C490.96 288.49 473.41 238.77 473.41 217.81C473.41 182.23 482.82 139.32 481.7 128.61C479.34 106.61 466.16 40.71 516.26 33.56Z" fill="#B27363"/>
<path d="M405 184.84C416.89 200.38 477.93 343.62 490.34 503.58" stroke="#78E5E1" stroke-width="4" stroke-linecap="round" stroke-linejoin="round"/>
<path d="M444.34 179.6C443.05 184.48 432.34 213.81 423.7 223.77" stroke="#78E5E1" stroke-width="4" stroke-linecap="round" stroke-linejoin="round"/>
<path d="M389.18 271.43C397.39 276.88 421 282.19 445 282.33" stroke="#78E5E1" stroke-width="4" stroke-linecap="round" stroke-linejoin="round"/>
<path d="M475 305.71C472.78 308.49 466.37 316.59 456.61 320.52" stroke="#78E5E1" stroke-width="4" stroke-linecap="round" stroke-linejoin="round"/>
<path d="M530.75 129.45C544.8 223.77 511.31 463.33 510.11 503.58" stroke="#78E5E1" stroke-width="4" stroke-linecap="round" stroke-linejoin="round"/>
<path d="M564.74 137.4C561.04 143.08 545.94 156.56 534.47 160.75" stroke="#78E5E1" stroke-width="4" stroke-linecap="round" stroke-linejoin="round"/>
<path d="M498.73 208.09C506.11 211.49 519.98 217.46 533.34 217.46" stroke="#78E5E1" stroke-width="4" stroke-linecap="round" stroke-linejoin="round"/>
</g>
<g clip-path="url(#clip3)">
<path d="M267.005 391.924C301.802 391.924 330.01 385.673 330.01 377.962C330.01 370.251 301.802 364 267.005 364C232.208 364 204 370.251 204 377.962C204 385.673 232.208 391.924 267.005 391.924Z" fill="black"/>
<path d="M267.005 377.962L231.604 488.998" stroke="black" stroke-width="4" stroke-miterlimit="10" stroke-linecap="round"/>
<path d="M267.005 377.962L302.396 488.998" stroke="black" stroke-width="4" stroke-miterlimit="10" stroke-linecap="round"/>
<path d="M243.225 452.547L282.689 427.185" stroke="black" stroke-width="2" stroke-miterlimit="10" stroke-linecap="round"/>
<path d="M251.161 427.185L290.616 452.547" stroke="black" stroke-width="2" stroke-miterlimit="10" stroke-linecap="round"/>
</g>
<g clip-path="url(#clip4)">
<path d="M410.052 240.5L396.118 235.604L385.45 265.964L399.385 270.86L410.052 240.5Z" fill="#1F161E"/>
<path d="M419.28 434.24C419.87 435.59 423.01 443.71 424.75 444.54C427.9 446.03 444.21 437.48 444.65 436.35C445.09 435.22 444.84 433.35 443.92 433.19C443 433.03 435.72 434.63 434.54 434.4C433.36 434.17 430.63 431.4 430.31 429.4" fill="#1F161E"/>
<path d="M215 311.29C215 365.29 232.18 376.63 249.27 376.63C292.56 376.63 348.88 341.91 352.06 340.57C351.06 346.25 344.75 490.23 344.75 491.06C346.25 492.23 357.75 493.24 361.62 492.23C362.62 488.73 393.03 317.48 393.03 312.97C393.03 308.46 390.41 301.6 380.5 300.61C376.31 300.19 318.02 297.77 318.02 297.77" fill="#1F161E"/>
<path d="M361.93 273C375.06 292 433.69 424.63 433.17 427.73C432.65 430.83 419.17 437.4 416.32 435.63C404.23 428.18 330 303 327.11 301.11C324.22 299.22 319.89 299.95 317.31 300.47C310.6 289.32 325.62 276.08 361.93 273Z" fill="#55B79D"/>
<path d="M303.15 166.56C322.73 166.56 328.36 185.1 329.98 192.1C335.16 214.45 320.74 299.38 319.07 301.72C304.9 321.53 223.9 323.29 216 314.71C208.1 306.13 249.65 166.56 303.15 166.56Z" fill="#73E5E2"/>
<path d="M348.54 489C348.28 490.45 346.32 498.94 347.3 500.6C349.06 503.6 367.37 505.67 368.37 504.98C369.37 504.29 370.2 502.6 369.54 501.98C368.88 501.36 361.94 498.58 361.09 497.72C360.24 496.86 359.53 493.04 360.4 491.2" fill="#1F161E"/>
<path d="M300.22 170.47C299.69 172.17 313.51 176.47 314.04 174.78L319.4 157.58L305.59 153.27L300.22 170.47Z" fill="#F8CDBA"/>
<path d="M313.92 161.65C312.57 161.23 302.76 162.36 302.1 164.48L305.59 153.27C307.74 153.94 313.92 161.65 313.92 161.65Z" fill="#1F161E"/>
<path d="M321.63 164.41C332.836 164.41 341.92 155.326 341.92 144.12C341.92 132.914 332.836 123.83 321.63 123.83C310.424 123.83 301.34 132.914 301.34 144.12C301.34 155.326 310.424 164.41 321.63 164.41Z" fill="#F8CDBA"/>
<path d="M341.868 154.809C342.172 153.833 340.898 152.568 339.021 151.982C337.144 151.397 335.376 151.712 335.071 152.688C334.767 153.663 336.042 154.929 337.919 155.514C339.796 156.1 341.564 155.784 341.868 154.809Z" fill="#FA9E9F"/>
<path d="M320.534 148.156C320.838 147.181 319.563 145.915 317.687 145.33C315.81 144.744 314.041 145.06 313.737 146.035C313.433 147.011 314.708 148.276 316.584 148.862C318.461 149.447 320.23 149.131 320.534 148.156Z" fill="#FA9E9F"/>
<path d="M331.34 147.51C331.69 148.61 333.77 153.43 329.86 153.9" stroke="#1F161E" stroke-width="1.2" stroke-miterlimit="10" stroke-linecap="round"/>
<path d="M321.62 156.2C320.62 155.85 319.42 154.13 318.95 152.72" stroke="#1F161E" stroke-width="1.2" stroke-miterlimit="10" stroke-linecap="round"/>
<path d="M327.77 117.5C322.42 116.83 306.89 112.21 303.36 109C301.69 109.88 295.2 115.71 289.91 123.6L297.42 131.15L287.93 126.77C285.429 130.868 283.71 135.395 282.86 140.12C285.31 146.73 293 149.45 294.45 149.63C303.8 150.81 307.39 136.28 312.1 134.48C320.1 131.41 329.52 139.38 341.37 138.88C344 133.51 340.58 119.11 327.77 117.5Z" fill="#1F161E"/>
<path d="M303.03 145.45C305.62 145.45 307.72 143.35 307.72 140.76C307.72 138.17 305.62 136.07 303.03 136.07C300.44 136.07 298.34 138.17 298.34 140.76C298.34 143.35 300.44 145.45 303.03 145.45Z" fill="#F8CDBA"/>
<path d="M282.86 214.12C281.86 220.38 278.62 279.49 286.38 285.24C303 297.55 379.75 282.49 391.38 278.18C392.64 274.06 391.38 260.97 391.38 260.97C386.9 260.79 330.38 260.25 327.01 255.97C323.64 251.69 323.24 216.7 323.78 212.75" fill="#73E5E2"/>
<path d="M399.2 279.55C405.203 279.55 410.07 274.683 410.07 268.68C410.07 262.677 405.203 257.81 399.2 257.81C393.197 257.81 388.33 262.677 388.33 268.68C388.33 274.683 393.197 279.55 399.2 279.55Z" fill="#F8CDBA"/>
<path d="M327 256C323.59 251.69 323.23 216.73 323.77 212.78" stroke="#1F161E" stroke-linecap="round" stroke-linejoin="round"/>
<path d="M321.69 289.68C306.03 290.55 292.34 289.68 286.38 285.24C282.98 282.73 281.69 270 281.38 255.95" stroke="#1F161E" stroke-linecap="round" stroke-linejoin="round"/>
<path d="M434.635 189H377.365C375.507 189 374 190.582 374 192.532V212.165C374 214.115 375.507 215.697 377.365 215.697H434.635C436.493 215.697 438 214.115 438 212.165V192.532C438 190.582 436.493 189 434.635 189Z" fill="#50B89D"/>
<path d="M406 234L413.708 209.483H398.292L406 234Z" fill="#50B89D"/>
<path d="M390.716 196.111L384.252 207.851H397.181L390.716 196.111Z" fill="white"/>
<path d="M421.272 207.851L427.737 196.111H414.819L421.272 207.851Z" fill="white"/>
<path d="M406 207.07C408.681 207.07 410.854 204.789 410.854 201.975C410.854 199.162 408.681 196.881 406 196.881C403.319 196.881 401.146 199.162 401.146 201.975C401.146 204.789 403.319 207.07 406 207.07Z" fill="white"/>
</g>
<defs>
<clipPath id="clip0">
<rect width="181.9" height="505.17" fill="white" transform="translate(29)"/>
</clipPath>
<clipPath id="clip1">
<rect width="143.11" height="293.29" fill="white" transform="translate(211 212)"/>
</clipPath>
<clipPath id="clip2">
<rect width="252.41" height="472.58" fill="white" transform="translate(355 33)"/>
</clipPath>
<clipPath id="clip3">
<rect width="126" height="127" fill="white" transform="translate(204 364)"/>
</clipPath>
<clipPath id="clip4">
<rect width="229.86" height="396.08" fill="white" transform="translate(215 109)"/>
</clipPath>
</defs>
</svg>
