<svg width="918" height="773" viewBox="0 0 918 773" fill="none" xmlns="http://www.w3.org/2000/svg">
<g clip-path="url(#clip0)">
<path d="M468.03 773C681.488 773 854.53 599.958 854.53 386.5C854.53 173.042 681.488 0 468.03 0C254.572 0 81.5303 173.042 81.5303 386.5C81.5303 599.958 254.572 773 468.03 773Z" fill="#FAEFE9"/>
<path d="M682.53 218H445.53V585H682.53V218Z" fill="white"/>
<path d="M398.03 442H641.03" stroke="black" stroke-miterlimit="10"/>
<path d="M398.03 466H641.03" stroke="black" stroke-miterlimit="10"/>
<path d="M398.03 490H641.03" stroke="black" stroke-miterlimit="10"/>
<path d="M398.03 514H641.03" stroke="black" stroke-miterlimit="10"/>
<path d="M564.03 387C598.272 387 626.03 359.242 626.03 325C626.03 290.758 598.272 263 564.03 263C529.789 263 502.03 290.758 502.03 325C502.03 359.242 529.789 387 564.03 387Z" fill="#F2F2F2"/>
<path opacity="0.7" d="M739.03 348.5H641.03V439.5H739.03V348.5Z" fill="#50B89D"/>
<path d="M671.827 391.522L685.289 396.962V401.177L667.699 393.027V389.887L685.289 381.759V385.974L671.827 391.522ZM703.288 408.058H699.869L712.943 374.06H716.341L703.288 408.058ZM745.65 391.393L731.436 385.823V381.737L749.801 389.866V393.005L731.436 401.155V397.027L745.65 391.393Z" fill="white"/>
<path d="M565.03 37.5H36.0303V385.5H565.03V37.5Z" stroke="black" stroke-miterlimit="10"/>
<path d="M36.0303 56H565.03" stroke="black" stroke-miterlimit="10"/>
<path d="M233.53 87H74.5303V246H233.53V87Z" stroke="black" stroke-miterlimit="10"/>
<path d="M264.03 101H507.03" stroke="black" stroke-miterlimit="10"/>
<path d="M264.03 125H507.03" stroke="black" stroke-miterlimit="10"/>
<path d="M264.03 149H507.03" stroke="black" stroke-miterlimit="10"/>
<path d="M264.03 173H507.03" stroke="black" stroke-miterlimit="10"/>
<path opacity="0.44" d="M154.03 129L110.73 204H197.33L154.03 129Z" fill="#50B89D"/>
<path d="M47.5303 51.5C50.0156 51.5 52.0303 49.4853 52.0303 47C52.0303 44.5147 50.0156 42.5 47.5303 42.5C45.045 42.5 43.0303 44.5147 43.0303 47C43.0303 49.4853 45.045 51.5 47.5303 51.5Z" fill="#AB8DE5"/>
<path d="M63.0303 51.5C65.5156 51.5 67.5303 49.4853 67.5303 47C67.5303 44.5147 65.5156 42.5 63.0303 42.5C60.545 42.5 58.5303 44.5147 58.5303 47C58.5303 49.4853 60.545 51.5 63.0303 51.5Z" fill="#73E5E2"/>
<path d="M78.5303 51.5C81.0156 51.5 83.0303 49.4853 83.0303 47C83.0303 44.5147 81.0156 42.5 78.5303 42.5C76.045 42.5 74.0303 44.5147 74.0303 47C74.0303 49.4853 76.045 51.5 78.5303 51.5Z" fill="#50B89D"/>
<path d="M269.03 321.25L284.03 308H268.73L269.03 321.25Z" fill="#AB8DE5"/>
<path d="M349.35 258.5H274.71C263.289 258.5 254.03 267.759 254.03 279.18V288.82C254.03 300.241 263.289 309.5 274.71 309.5H349.35C360.772 309.5 370.03 300.241 370.03 288.82V279.18C370.03 267.759 360.772 258.5 349.35 258.5Z" fill="#AB8DE5"/>
<path d="M296.53 288.5C299.016 288.5 301.03 286.485 301.03 284C301.03 281.515 299.016 279.5 296.53 279.5C294.045 279.5 292.03 281.515 292.03 284C292.03 286.485 294.045 288.5 296.53 288.5Z" fill="white"/>
<path d="M312.03 288.5C314.516 288.5 316.53 286.485 316.53 284C316.53 281.515 314.516 279.5 312.03 279.5C309.545 279.5 307.53 281.515 307.53 284C307.53 286.485 309.545 288.5 312.03 288.5Z" fill="white"/>
<path d="M327.53 288.5C330.016 288.5 332.03 286.485 332.03 284C332.03 281.515 330.016 279.5 327.53 279.5C325.045 279.5 323.03 281.515 323.03 284C323.03 286.485 325.045 288.5 327.53 288.5Z" fill="white"/>
<path d="M744.03 171.25L729.03 158H744.33L744.03 171.25Z" fill="#73E5E2"/>
<path d="M663.71 159.5H738.35C749.772 159.5 759.03 150.241 759.03 138.82V129.18C759.03 117.759 749.772 108.5 738.35 108.5L663.71 108.5C652.289 108.5 643.03 117.759 643.03 129.18V138.82C643.03 150.241 652.289 159.5 663.71 159.5Z" fill="#73E5E2"/>
<path d="M716.53 138.5C719.016 138.5 721.03 136.485 721.03 134C721.03 131.515 719.016 129.5 716.53 129.5C714.045 129.5 712.03 131.515 712.03 134C712.03 136.485 714.045 138.5 716.53 138.5Z" fill="white"/>
<path d="M701.03 138.5C703.516 138.5 705.53 136.485 705.53 134C705.53 131.515 703.516 129.5 701.03 129.5C698.545 129.5 696.53 131.515 696.53 134C696.53 136.485 698.545 138.5 701.03 138.5Z" fill="white"/>
<path d="M685.53 138.5C688.016 138.5 690.03 136.485 690.03 134C690.03 131.515 688.016 129.5 685.53 129.5C683.045 129.5 681.03 131.515 681.03 134C681.03 136.485 683.045 138.5 685.53 138.5Z" fill="white"/>
<path d="M736.03 47C738.516 47 740.53 44.9853 740.53 42.5C740.53 40.0147 738.516 38 736.03 38C733.545 38 731.53 40.0147 731.53 42.5C731.53 44.9853 733.545 47 736.03 47Z" fill="#F98B67"/>
<path d="M745.53 65.5C748.016 65.5 750.03 63.4853 750.03 61C750.03 58.5147 748.016 56.5 745.53 56.5C743.045 56.5 741.03 58.5147 741.03 61C741.03 63.4853 743.045 65.5 745.53 65.5Z" fill="#F98B67"/>
<path d="M642.03 250.5C645.896 250.5 649.03 247.366 649.03 243.5C649.03 239.634 645.896 236.5 642.03 236.5C638.164 236.5 635.03 239.634 635.03 243.5C635.03 247.366 638.164 250.5 642.03 250.5Z" fill="#F98B67"/>
<path d="M683.03 274.5C686.896 274.5 690.03 271.366 690.03 267.5C690.03 263.634 686.896 260.5 683.03 260.5C679.164 260.5 676.03 263.634 676.03 267.5C676.03 271.366 679.164 274.5 683.03 274.5Z" fill="#F98B67"/>
<path d="M53.0303 282.5C56.8963 282.5 60.0303 279.366 60.0303 275.5C60.0303 271.634 56.8963 268.5 53.0303 268.5C49.1643 268.5 46.0303 271.634 46.0303 275.5C46.0303 279.366 49.1643 282.5 53.0303 282.5Z" fill="#F98B67"/>
<path d="M658.23 595.25V594.25L655.83 591.25L650.28 584.51L644.38 577.37C644.38 577.37 638.7 573.44 637.24 572.76C631.92 570.3 626.68 568.42 620.42 568.42C616.57 568.42 602.18 569 602.15 571.42C602.15 575.01 622.3 588.6 637.08 595.2C643.57 595.25 658.23 595.25 658.23 595.25Z" fill="#1F161E"/>
<path d="M655.181 595.25C634.671 579.47 592.801 493.4 603.541 461.5C626.401 473.15 651.481 513.32 663.311 547.24C663.947 549.446 664.458 551.686 664.841 553.95L669.641 575.95L670.801 595.28L655.181 595.25Z" fill="#FBDC8E"/>
<path d="M669.18 595.25C662.26 589.63 660.05 572.99 659.99 566.78C659.88 555.19 661.66 546.65 671.57 533.9C681.48 521.15 678.84 500 692 485.73C705.16 471.46 713.88 467.48 729.5 467.48C745.12 467.48 750.08 492.8 750 499.17C749.82 524.87 733.63 528.51 723.75 540.77C716.58 549.67 716.02 556.95 713.85 561.11C702.21 583.53 692.75 591.96 685.75 595.25" fill="#73E5E2"/>
<path d="M673 593.39C673.2 549.56 719.39 483.73 729.26 473.86" stroke="white" stroke-width="0.4" stroke-linecap="round" stroke-linejoin="round"/>
<path d="M675.49 573.47C670.38 567.9 665.73 552.11 666.43 548.01" stroke="white" stroke-width="0.4" stroke-linecap="round" stroke-linejoin="round"/>
<path d="M662.4 591.47C655.16 578.64 620.81 516.08 608 470" stroke="white" stroke-width="0.4" stroke-linecap="round" stroke-linejoin="round"/>
<path d="M685.791 595.25H707.311L689.311 662.25H641.181L623.471 595.25H685.791Z" fill="#B37361"/>
<path d="M609.19 572.78C619.68 573.5 632.88 573.98 642.19 580.33" stroke="white" stroke-width="0.4" stroke-linecap="round" stroke-linejoin="round"/>
<path d="M775.471 321C772.941 333.07 754.561 482.79 760.571 518.55C766.581 554.31 864.571 629.24 868.861 630.55C873.861 626.88 881.221 614.85 881.221 614.85C881.221 614.85 809.371 531.56 808.001 528.22C806.631 524.88 823.741 332 823.741 332L775.471 321Z" fill="#1F161E"/>
<path d="M892.49 348.25L819.18 647.26H794.49L819.51 335.33L892.49 348.25Z" fill="#AB8DE5"/>
<path d="M840.421 177.05C850.541 177.05 903.331 178.76 912.871 197.34C922.411 215.92 913.421 301.8 907.491 305.13C904.291 306.92 903.421 305.18 902.491 308.82C901.561 312.46 892.491 348.25 892.491 348.25C886.731 348.41 802.751 335.76 775.491 320.97C775.651 316.86 776.971 306.17 776.971 305.35C773.351 306.83 768.971 307.14 767.771 305.35C757.131 289.24 772.991 205.25 784.371 188.35C789.211 181.1 824.181 177.1 840.421 177.05Z" fill="#FBDC8E"/>
<path d="M875.181 307.45C877.661 307.45 899.011 322.45 897.181 329.82C898.681 323.9 903.401 305.61 903.401 305.61C901.371 306 877.001 307.48 875.181 307.45Z" fill="#1F161E"/>
<path d="M853.49 186.85C853.49 190.11 827.78 190.11 827.78 186.85V153.85H853.49V186.85Z" fill="#F8CDBA"/>
<path d="M838.74 161.66C840.74 161.66 853.49 167.3 853.49 170.44V153.85C850.31 153.85 838.74 161.66 838.74 161.66Z" fill="#1F161E"/>
<path d="M835.221 164.07C849.034 164.07 860.231 152.872 860.231 139.06C860.231 125.247 849.034 114.05 835.221 114.05C821.408 114.05 810.211 125.247 810.211 139.06C810.211 152.872 821.408 164.07 835.221 164.07Z" fill="#F8CDBA"/>
<path d="M826.761 102.5C813.921 102.5 805.921 110.56 805.921 120.89C805.921 129.48 808.001 134.34 810.451 135.57C812.001 127.23 815.371 123.37 818.161 121.71C820.331 123.37 824.041 127.39 829.001 128.63C833.961 129.87 846.871 129.63 857.301 137.21C860.711 134.11 864.111 130.08 864.111 125.33C864.111 120.58 862.011 114.62 849.661 111.18C841.501 108.91 840.361 102.5 826.761 102.5Z" fill="#1F161E"/>
<path d="M811.851 146.49C814.27 146.49 816.231 145.469 816.231 144.21C816.231 142.951 814.27 141.93 811.851 141.93C809.432 141.93 807.471 142.951 807.471 144.21C807.471 145.469 809.432 146.49 811.851 146.49Z" fill="#FA9E9F"/>
<path d="M839.401 146.49C841.82 146.49 843.781 145.469 843.781 144.21C843.781 142.951 841.82 141.93 839.401 141.93C836.982 141.93 835.021 142.951 835.021 144.21C835.021 145.469 836.982 146.49 839.401 146.49Z" fill="#FA9E9F"/>
<path d="M822.551 139.48C821.731 140.65 817.551 145.56 821.961 147.54" stroke="#1F161E" stroke-miterlimit="10" stroke-linecap="round"/>
<path d="M830.791 153.28C832.111 153.28 834.141 151.64 835.211 150.17" stroke="#1F161E" stroke-miterlimit="10" stroke-linecap="round"/>
<path d="M858.341 147.72C861.533 147.72 864.121 145.132 864.121 141.94C864.121 138.748 861.533 136.16 858.341 136.16C855.148 136.16 852.561 138.748 852.561 141.94C852.561 145.132 855.148 147.72 858.341 147.72Z" fill="#F8CDBA"/>
<path d="M875.761 226.26C875.311 231.78 873.551 259.06 874.211 262.65C865.821 265.57 789.001 302 775.711 306" stroke="#1F161E" stroke-miterlimit="10" stroke-linecap="round"/>
<path d="M786.541 217.65C784.771 223.83 778.811 251.88 783.001 264.91" stroke="#1F161E" stroke-miterlimit="10" stroke-linecap="round"/>
<path d="M806.15 293.24C810.15 296.05 848.49 313.02 901.5 306.62" stroke="#1F161E" stroke-miterlimit="10" stroke-linecap="round"/>
<path d="M802.48 264.91C805.05 265.32 796.67 258.63 791.92 261.12C787.17 263.61 780.77 274.88 782.08 277.49C782.257 277.964 782.537 278.392 782.901 278.743C783.265 279.094 783.703 279.359 784.183 279.518C784.662 279.677 785.172 279.727 785.673 279.663C786.175 279.599 786.656 279.424 787.08 279.15C788.37 278.32 798 264.19 802.48 264.91Z" fill="#F8CDBA"/>
<path d="M880.4 616.08C881.77 617.08 893.92 625.3 894.02 630.48C894.12 635.66 882.7 652.83 880.4 653.32C878.1 653.81 876.46 651.87 876.46 648.4C876.46 644.93 880.8 638.85 880.22 636.15C879.64 633.45 874.03 628.51 871.15 628.42" fill="#1F161E"/>
<path d="M816.84 647.26C816.84 649.64 818.22 664.58 815.46 665.97C812.7 667.36 782.24 668.18 780.86 666.8C779.48 665.42 778.64 662.51 779.86 661.68C781.08 660.85 792.86 658.49 794.46 657.39C796.06 656.29 798.27 650.39 797.46 647.26" fill="#1F161E"/>
<path d="M219.39 536.34H26.0098V634.43H219.39V536.34Z" fill="#B37361"/>
<path d="M314.66 490.37C315.5 495.37 329.76 609.68 332.07 611.57C334.38 613.46 358.91 617.65 361.01 614.51C361.43 609.51 362.01 529.79 363.31 522.66" fill="#1F161E"/>
<path d="M38.7604 466.52C28.8704 461.65 49.4904 558.19 103.76 558.19C158.03 558.19 249.38 475.52 264.17 475.52C296.82 475.52 374.11 539.62 380.17 539.62C384.81 534.98 394.09 526.86 394.09 523.62C394.09 520.38 320.09 398.62 264.72 398.62C243.25 398.65 61.0904 477.55 38.7604 466.52Z" fill="#50B89D"/>
<path d="M69.3005 468.16C80.1505 465.7 93.6505 459.33 105.6 452.82C73.0905 463.45 46.4505 470.32 38.7605 466.52C33.5205 463.94 36.8405 489.78 49.1605 514.67C46.9305 509.86 43.7505 474 69.3005 468.16Z" fill="#1F161E"/>
<path d="M93.2204 298.8C101.77 299.03 146.28 297.72 158.48 309.34C167.53 317.96 195.67 392.09 200.01 418.12C181.11 427.73 44.7904 493 2.60038 464.3C1.67038 442 6.00038 353.35 33.5904 306.86C43.6804 300.14 85.0004 298.59 93.2204 298.8Z" fill="#73E5E2"/>
<path d="M110.561 277.59H84.5605V305.53C84.5605 312.53 110.561 312.47 110.561 305.53V277.59Z" fill="#F8CDBA"/>
<path d="M84.5605 294.46C84.5605 291.36 93.1505 283.57 98.4605 283.85C98.5905 280.4 86.3306 275.44 86.3306 275.44L84.5605 280.21V294.46Z" fill="#1F161E"/>
<path d="M137.79 277.59C138.374 274.886 138.669 272.127 138.67 269.36C138.67 248.74 122.56 232.02 102.67 232.02C82.7799 232.02 66.6699 248.74 66.6699 269.36C66.6711 272.127 66.9661 274.886 67.5499 277.59H137.79Z" fill="#1F161E"/>
<path d="M128.301 252.42C123.891 251.75 119.491 248.28 116.421 246.01C98.9206 258.83 87.7106 259 86.5006 259C85.2906 259 80.3606 266.08 78.0906 266.88L77.8906 266.76C78.5655 270.486 80.0078 274.03 82.126 277.168C84.2442 280.306 86.9919 282.969 90.1945 284.988C93.3972 287.007 96.9847 288.338 100.729 288.896C104.474 289.454 108.294 289.227 111.946 288.229C115.598 287.232 119.003 285.486 121.944 283.102C124.885 280.718 127.298 277.748 129.03 274.381C130.762 271.015 131.774 267.325 132.003 263.546C132.232 259.767 131.673 255.981 130.361 252.43C129.676 252.512 128.984 252.509 128.301 252.42Z" fill="#F8CDBA"/>
<path d="M83.1698 236.67C89.0351 236.67 93.7898 231.915 93.7898 226.05C93.7898 220.185 89.0351 215.43 83.1698 215.43C77.3045 215.43 72.5498 220.185 72.5498 226.05C72.5498 231.915 77.3045 236.67 83.1698 236.67Z" fill="#1F161E"/>
<path d="M87.9002 258.43C86.7526 258.485 85.6699 258.979 84.877 259.81C84.084 260.641 83.6416 261.746 83.6416 262.895C83.6416 264.044 84.084 265.149 84.877 265.98C85.6699 266.812 86.7526 267.306 87.9002 267.36" stroke="#1F161E" stroke-miterlimit="10" stroke-linecap="round"/>
<path d="M121.94 259C123.25 260.75 126.62 263.82 121.94 267.07" stroke="#1F161E" stroke-miterlimit="10" stroke-linecap="round"/>
<path d="M107.75 269.41C107.75 270.72 108.31 273.85 111.12 274.66" stroke="#1F161E" stroke-miterlimit="10" stroke-linecap="round"/>
<path d="M99.0399 269.72C101.315 269.72 103.16 268.762 103.16 267.58C103.16 266.399 101.315 265.44 99.0399 265.44C96.7645 265.44 94.9199 266.399 94.9199 267.58C94.9199 268.762 96.7645 269.72 99.0399 269.72Z" fill="#FA9E9F"/>
<path d="M129.67 269.72C131.945 269.72 133.79 268.762 133.79 267.58C133.79 266.399 131.945 265.44 129.67 265.44C127.394 265.44 125.55 266.399 125.55 267.58C125.55 268.762 127.394 269.72 129.67 269.72Z" fill="#FA9E9F"/>
<path d="M157.54 376.07L185.33 368.92C188 373.46 201 418.07 201 418.07L158.1 436.15C158.66 427.7 160.35 389 157.54 376.07Z" fill="#F8CDBA"/>
<path d="M60.1006 369.08C60.1006 372.44 57.2706 385.23 55.6006 391.24" stroke="#1F161E" stroke-miterlimit="10" stroke-linecap="round"/>
<path d="M157.54 376.07C156.87 370.78 152.95 340.97 146.28 325.28" stroke="#1F161E" stroke-miterlimit="10" stroke-linecap="round"/>
<path d="M157.54 376.07L185.33 368.92C188 373.46 201 418.07 201 418.07L158.1 436.15C158.66 427.7 160.35 389 157.54 376.07Z" fill="#F8CDBA"/>
<path d="M381 537.26C381.62 538.26 389.9 548.42 392.83 548.53C395.76 548.64 413.55 536.59 412.77 534C411.99 531.41 400.83 533.1 398.91 532.19C396.99 531.28 392.7 527 392 525.1" fill="#1F161E"/>
<path d="M337.25 612.63C337.04 613.74 335.91 626.83 337.94 628.95C339.97 631.07 361.14 634.75 362.37 632.34C363.6 629.93 354.37 623.4 353.66 621.42C352.95 619.44 352.8 613.42 353.66 611.54" fill="#1F161E"/>
<path d="M304.061 420.87H209.891L232.311 361.46H326.481L304.061 420.87Z" fill="#969696"/>
<path d="M225.59 418.63H131.42V420.87H225.59V418.63Z" fill="#969696"/>
<path d="M55.6002 391.24C53.7902 398 45.0002 427 48.5802 432C52.1602 437 141.82 425.67 165.81 418.2C171.92 416.2 176.45 410.96 179.16 410.28C182.64 409.691 186.215 410.409 189.198 412.295C192.18 414.182 194.361 417.104 195.32 420.5C185.74 425.14 47.4202 495.76 2.60016 464.33C-5.86984 458.26 8.99016 384.26 9.67016 380.53C17.2402 381.44 55.6002 391.24 55.6002 391.24Z" fill="#F8CDBA"/>
<path d="M158.82 420C161.52 419.36 163.88 418.73 165.82 418.13C171.93 416.13 176.46 410.89 179.17 410.21C182.65 409.621 186.225 410.339 189.208 412.225C192.191 414.111 194.371 417.034 195.33 420.43" stroke="#1F161E" stroke-miterlimit="10" stroke-linecap="round"/>
</g>
<defs>
<clipPath id="clip0">
<rect width="917.04" height="773" fill="white"/>
</clipPath>
</defs>
</svg>
