<svg width="776" height="773" viewBox="0 0 776 773" fill="none" xmlns="http://www.w3.org/2000/svg">
<path d="M389.5 773C602.958 773 776 599.958 776 386.5C776 173.042 602.958 0 389.5 0C176.042 0 3 173.042 3 386.5C3 599.958 176.042 773 389.5 773Z" fill="#FAEFE9"/>
<g clip-path="url(#clip0)">
<path d="M601.71 290L486.7 748.97H716.71L601.71 290Z" fill="#99574A"/>
<path d="M492.29 433.87L416 748.97H568.57L492.29 433.87Z" fill="#B37361"/>
<path d="M492.29 533.57V748.97" stroke="#FBDC8E" stroke-width="3" stroke-miterlimit="10" stroke-linecap="round"/>
<path d="M601.71 421.2V748.97" stroke="#FBDC8E" stroke-width="3" stroke-miterlimit="10" stroke-linecap="round"/>
<path d="M492.29 614.04L512.53 593.8" stroke="#FBDC8E" stroke-width="3" stroke-miterlimit="10" stroke-linecap="round"/>
<path d="M492.29 701.46L460.81 669.98" stroke="#FBDC8E" stroke-width="3" stroke-miterlimit="10" stroke-linecap="round"/>
<path d="M601.71 514.84L578.69 491.82" stroke="#FBDC8E" stroke-width="3" stroke-miterlimit="10" stroke-linecap="round"/>
<path d="M601.71 647.34L647.57 601.48" stroke="#FBDC8E" stroke-width="3" stroke-miterlimit="10" stroke-linecap="round"/>
</g>
<g clip-path="url(#clip1)">
<path d="M143.19 251C183.9 251 197.64 278.6 197.64 297.78C197.64 337.78 188.98 328.86 188.98 370.2C188.98 414.63 245.9 470.73 245.9 547.47C245.9 652.38 154.33 667.76 143.19 667.76C85.45 667.76 64 604.22 64 565.67C64 520 104.22 471.11 104.22 427.09C104.22 394.89 93.7 382.38 93.7 332.46C93.7 282.26 122.78 251 143.19 251Z" fill="#73E5E2"/>
<path d="M140.15 754.67V317.06" stroke="#FBDC8E" stroke-width="3" stroke-miterlimit="10" stroke-linecap="round"/>
<path d="M140.15 601.08L207.95 531.59" stroke="#FBDC8E" stroke-width="3" stroke-miterlimit="10" stroke-linecap="round"/>
<path d="M138.46 406.07L116.62 384.23" stroke="#FBDC8E" stroke-width="3" stroke-miterlimit="10" stroke-linecap="round"/>
<path d="M140.15 347.49L170.64 317.01" stroke="#FBDC8E" stroke-width="3" stroke-miterlimit="10" stroke-linecap="round"/>
</g>
<g clip-path="url(#clip2)">
<path d="M359.48 465.7C389 479.13 392.36 528.87 387 540C378.43 557.77 347.24 583.47 338.85 601.21C335.25 608.82 304.85 688.21 276.48 678.95C251.27 670.67 237.48 634.18 251.72 608.79C272.72 571.24 281.18 521.17 288.62 507.79C298.44 490.18 330.78 452.64 359.48 465.7Z" fill="#50B89D"/>
<path d="M265.93 754.79C265.93 736.61 276.93 591.14 329.25 531.71" stroke="#FBDC8E" stroke-width="3" stroke-miterlimit="10" stroke-linecap="round"/>
<path d="M310.62 559.27L299.29 515.93" stroke="#FBDC8E" stroke-width="3" stroke-miterlimit="10" stroke-linecap="round"/>
</g>
<path d="M499.861 213.89C499.861 212.178 500.445 210.503 501.539 209.08C502.633 207.656 504.187 206.546 506.006 205.89C507.825 205.235 509.826 205.064 511.757 205.398C513.688 205.732 515.461 206.556 516.853 207.767C518.245 208.978 519.193 210.521 519.578 212.201C519.962 213.881 519.764 215.622 519.011 217.204C518.258 218.786 516.982 220.138 515.345 221.09C513.708 222.041 511.784 222.549 509.815 222.549C507.175 222.549 504.643 221.637 502.777 220.013C500.91 218.389 499.861 216.187 499.861 213.89V213.89Z" stroke="#AB8FE2" stroke-width="5" stroke-linecap="round" stroke-linejoin="round"/>
<path d="M529.355 213.89H599.328" stroke="#AB8FE2" stroke-width="5" stroke-linecap="round" stroke-linejoin="round"/>
<path d="M509.107 235.594H612.717" stroke="#AB8FE2" stroke-width="5" stroke-linecap="round" stroke-linejoin="round"/>
<path d="M503.025 192.665C499.599 192.665 496.314 193.849 493.891 195.956C491.469 198.063 490.108 200.921 490.108 203.901V260.735C490.108 263.715 491.469 266.573 493.891 268.68C496.314 270.787 499.599 271.971 503.025 271.971H593.473L617.471 298.335L617.322 271.925H622.976C626.402 271.925 629.687 270.741 632.109 268.634C634.532 266.527 635.892 263.669 635.892 260.689V203.878C635.885 200.902 634.522 198.05 632.1 195.948C629.679 193.846 626.397 192.665 622.976 192.665H503.025Z" stroke="#AB8FE2" stroke-width="5" stroke-linecap="round" stroke-linejoin="round"/>
<path d="M723.997 755.822C724.207 757.452 725.907 766.952 724.727 768.732C722.607 771.962 702.227 773.232 701.157 772.402C700.087 771.572 699.257 769.672 700.037 768.992C700.817 768.312 708.637 765.652 709.627 764.752C710.617 763.852 711.627 759.652 710.757 757.562" fill="#1F161E"/>
<path d="M629.267 743.242C629.477 744.862 631.167 754.372 629.997 756.152C627.877 759.372 607.497 760.642 606.427 759.822C605.357 759.002 604.527 757.092 605.307 756.412C606.087 755.732 613.907 753.062 614.897 752.162C615.887 751.262 616.897 747.062 616.027 744.982" fill="#1F161E"/>
<path d="M662.587 494.232C661.097 498.712 636.817 633.352 635.287 640.652C633.757 647.952 610.447 739.742 612.467 742.782C614.487 745.822 628.697 749.882 632.247 747.852C635.797 745.822 697.667 607.852 702.247 590.652C706.827 573.452 702.247 483.502 702.247 483.502L662.587 494.232Z" fill="#1F161E"/>
<path d="M681.107 495.232C682.047 502.602 696.287 624.112 700.477 643.312C704.667 662.512 700.827 755.312 703.927 756.762C707.927 760.062 728.707 760.062 728.707 760.062C732.477 756.762 745.807 504.242 745.807 504.242C745.807 504.242 712.687 474.502 681.107 495.232Z" fill="#FADB93"/>
<path d="M693.337 397.272C693.337 399.872 707.677 400.022 707.667 397.272V379.852H693.337V397.272Z" fill="#F8CDBA"/>
<path d="M707.647 390.212C707.647 388.662 702.937 382.042 700.207 382.942C703.577 381.742 706.377 378.942 707.617 379.812L707.647 390.212Z" fill="#1F161E"/>
<path d="M693.747 386.722C704.025 386.722 712.357 378.39 712.357 368.112C712.357 357.834 704.025 349.502 693.747 349.502C683.469 349.502 675.137 357.834 675.137 368.112C675.137 378.39 683.469 386.722 693.747 386.722Z" fill="#F8CDBA"/>
<path d="M676.225 375.618C677.926 375.446 679.232 374.589 679.142 373.703C679.053 372.817 677.602 372.239 675.901 372.41C674.201 372.582 672.895 373.439 672.984 374.325C673.074 375.211 674.525 375.79 676.225 375.618Z" fill="#FA9E9F"/>
<path d="M696.16 373.614C697.868 373.436 699.178 372.571 699.086 371.681C698.993 370.791 697.533 370.214 695.825 370.391C694.116 370.569 692.806 371.434 692.899 372.324C692.991 373.214 694.451 373.791 696.16 373.614Z" fill="#FA9E9F"/>
<path d="M683.777 369.902C683.277 370.782 680.677 374.552 683.947 375.632" stroke="#1F161E" stroke-width="0.69" stroke-miterlimit="10" stroke-linecap="round"/>
<path d="M690.597 379.002C691.517 378.882 692.837 377.612 693.487 376.492" stroke="#1F161E" stroke-width="0.69" stroke-miterlimit="10" stroke-linecap="round"/>
<path d="M708.797 369.902C711.061 369.902 712.897 368.067 712.897 365.802C712.897 363.538 711.061 361.702 708.797 361.702C706.532 361.702 704.697 363.538 704.697 365.802C704.697 368.067 706.532 369.902 708.797 369.902Z" fill="#F8CDBA"/>
<path d="M705.997 369.422C705.997 374.872 711.997 378.422 714.057 378.422C714.384 378.467 714.717 378.439 715.033 378.34C715.348 378.241 715.638 378.074 715.881 377.851C716.124 377.627 716.316 377.353 716.441 377.047C716.567 376.742 716.623 376.412 716.607 376.082C716.607 373.802 715.257 371.842 712.437 369.372C712.927 368.522 716.607 364.032 716.607 357.702C716.607 351.002 712.497 345.392 709.747 345.392C708.57 345.471 707.453 345.938 706.57 346.72C705.687 347.501 705.088 348.554 704.867 349.712C704.867 340.352 694.867 333.652 688.867 333.652C683.307 333.652 682.357 336.072 682.357 338.042C682.357 342.342 685.747 346.952 687.027 348.042C683.917 345.752 679.027 343.442 674.857 343.442C672.217 343.442 668.857 344.192 668.857 347.832C668.857 354.502 675.107 358.362 677.197 359.442C677.994 357.887 679.003 356.449 680.197 355.172C679.817 356.432 681.357 358.722 684.307 359.242C685.997 359.612 705.997 356.912 705.997 369.422Z" fill="#1F161E"/>
<path d="M654.467 340.602C651.206 339.56 648.007 338.331 644.887 336.922C643.497 336.102 649.467 326.052 652.237 323.142C655.007 320.232 660.727 318.742 663.717 321.342C666.707 323.942 664.857 330.342 654.467 340.602Z" fill="#F8CDBA"/>
<path d="M736.237 395.542C754.567 406.002 775.907 468.232 775.907 473.002C775.907 477.772 736.907 549.192 734.567 549.192C732.567 547.062 724.097 536.972 724.097 536.972C726.217 533.722 740.097 502.462 740.587 501.152C737.207 501.712 665.947 504.062 659.947 501.432C653.947 498.802 656.287 431.202 654.697 428.952C653.107 426.702 610.537 423.562 605.287 415.492C607.447 375.632 642.127 337.392 644.667 336.362C647.207 335.332 655.447 338.142 655.817 340.002C654.817 342.622 636.037 391.662 637.727 394.002C646.537 393.092 728.597 391.172 736.237 395.542Z" fill="#AB8FE2"/>
<path d="M726.747 438.342C728.477 441.422 745.997 471.252 745.807 473.752C745.617 476.252 743.297 493.532 740.587 501.102" stroke="#1F161E" stroke-width="0.55" stroke-miterlimit="10" stroke-linecap="round"/>
<path d="M654.997 429.482C654.751 423.707 655.056 417.92 655.907 412.202" stroke="#1F161E" stroke-width="0.55" stroke-miterlimit="10" stroke-linecap="round"/>
<path d="M127.504 449.159C129.782 460.439 146.335 600.352 140.923 633.751C135.51 667.15 47.2587 737.19 43.3951 738.414C38.892 734.985 32.2635 723.743 32.2635 723.743C32.2635 723.743 96.9727 645.955 98.1795 642.834C99.3863 639.713 84.0308 459.504 84.0308 459.504L127.504 449.159Z" fill="#1F161E"/>
<path d="M22.114 474.653L88.1381 754.076H110.383L87.8409 462.579L22.114 474.653Z" fill="#AB8DE5"/>
<path d="M69.0089 314.667C59.8947 314.667 12.3512 316.265 3.75935 333.628C-4.8325 350.991 3.26402 431.245 8.60468 434.357C11.4866 436.03 12.2702 434.404 13.1077 437.805C13.9453 441.207 22.1139 474.653 22.1139 474.653C27.3014 474.802 102.935 462.981 127.486 449.16C127.342 445.319 126.153 435.329 126.153 434.563C129.413 435.946 133.358 436.235 134.448 434.563C144.021 419.508 129.737 341.02 119.497 325.227C115.129 318.451 83.6349 314.713 69.0089 314.667Z" fill="#FBDC8E"/>
<path d="M37.7036 436.572C35.4701 436.572 16.2419 450.589 17.8901 457.477C16.5392 451.944 12.2882 434.852 12.2882 434.852C14.1165 435.151 36.1095 436.572 37.7036 436.572Z" fill="#1F161E"/>
<path d="M57.2378 323.825C57.2378 326.871 80.3926 326.871 80.3926 323.825V292.986H57.2378V323.825Z" fill="#F8CDBA"/>
<path d="M70.5308 300.285C68.7295 300.285 57.2377 305.555 57.2377 308.49V292.986C60.1016 292.986 70.5308 300.285 70.5308 300.285Z" fill="#1F161E"/>
<path d="M73.6919 302.537C61.2521 302.537 51.1675 292.073 51.1675 279.165C51.1675 266.257 61.2521 255.793 73.6919 255.793C86.1318 255.793 96.2163 266.257 96.2163 279.165C96.2163 292.073 86.1318 302.537 73.6919 302.537Z" fill="#F8CDBA"/>
<path d="M81.311 245C92.8749 245 100.089 252.532 100.089 262.185C100.089 270.213 98.2066 274.754 96.0001 275.904C94.6041 268.11 91.569 264.503 89.0563 262.952C87.111 264.503 83.7607 268.26 79.2937 269.418C74.8266 270.577 63.1997 270.353 53.8063 277.436C50.7442 274.539 47.6731 270.773 47.6731 266.335C47.6731 261.896 49.5644 256.326 60.696 253.111C68.036 250.99 69.0537 245 81.311 245Z" fill="#1F161E"/>
<path d="M94.7394 286.109C92.5608 286.109 90.7947 285.155 90.7947 283.978C90.7947 282.801 92.5608 281.847 94.7394 281.847C96.918 281.847 98.6841 282.801 98.6841 283.978C98.6841 285.155 96.918 286.109 94.7394 286.109Z" fill="#FA9E9F"/>
<path d="M69.9279 286.109C67.7493 286.109 65.9832 285.155 65.9832 283.978C65.9832 282.801 67.7493 281.847 69.9279 281.847C72.1065 281.847 73.8726 282.801 73.8726 283.978C73.8726 285.155 72.1065 286.109 69.9279 286.109Z" fill="#FA9E9F"/>
<path d="M85.1028 279.576C85.8413 280.67 89.6059 285.258 85.6342 287.108" stroke="#1F161E" stroke-miterlimit="10" stroke-linecap="round"/>
<path d="M77.6816 292.454C76.5018 292.454 74.6646 290.921 73.7009 289.547" stroke="#1F161E" stroke-miterlimit="10" stroke-linecap="round"/>
<path d="M52.8701 287.258C49.9952 287.258 47.6646 284.84 47.6646 281.857C47.6646 278.873 49.9952 276.455 52.8701 276.455C55.7451 276.455 58.0757 278.873 58.0757 281.857C58.0757 284.84 55.7451 287.258 52.8701 287.258Z" fill="#F8CDBA"/>
<path d="M37.181 360.653C37.5863 365.812 39.1714 391.305 38.577 394.66C46.1332 397.388 115.354 431.441 127.288 435.151" stroke="#1F161E" stroke-miterlimit="10" stroke-linecap="round"/>
<path d="M117.543 352.607C119.128 358.382 124.496 384.595 120.722 396.772" stroke="#1F161E" stroke-miterlimit="10" stroke-linecap="round"/>
<path d="M99.8818 423.246C96.2794 425.872 61.7408 441.73 14.0082 435.749" stroke="#1F161E" stroke-miterlimit="10" stroke-linecap="round"/>
<path d="M103.178 396.772C100.863 397.155 108.411 390.903 112.689 393.23C116.966 395.557 122.73 406.089 121.551 408.537C121.392 408.98 121.139 409.38 120.811 409.708C120.484 410.036 120.089 410.283 119.657 410.432C119.225 410.581 118.766 410.627 118.315 410.568C117.863 410.508 117.43 410.344 117.048 410.088C115.886 409.303 107.24 396.099 103.178 396.772Z" fill="#F8CDBA"/>
<path d="M33.0292 724.939C31.7953 725.873 20.8529 733.555 20.7628 738.396C20.6727 743.236 30.9307 759.282 33.0292 759.739C35.1276 760.197 36.5776 758.384 36.5776 755.142C36.5776 751.899 32.6689 746.217 33.1913 743.694C33.7136 741.171 38.7661 736.555 41.3599 736.471" fill="#1F161E"/>
<path d="M90.2457 754.076C90.2457 756.301 89.0028 770.262 91.4975 771.561C93.9922 772.86 121.407 773.626 122.65 772.336C123.893 771.047 124.649 768.327 123.55 767.552C122.452 766.776 111.842 764.571 110.41 763.543C108.978 762.515 106.979 757.001 107.709 754.076" fill="#1F161E"/>
<g clip-path="url(#clip3)">
<path d="M37 188.85C37 174.27 73.18 171.18 87.48 171.18C116.48 171.18 118.4 154.58 142.48 154.58C163.65 154.58 174.42 171.72 194.13 171.72C236.43 171.72 245.85 123 287 123C328.87 123 326.73 173.86 365.69 173.86C385.5 173.86 504.51 177.6 504.51 188.86L37 188.85Z" fill="white"/>
</g>
<defs>
<clipPath id="clip0">
<rect width="300.71" height="460.47" fill="white" transform="translate(416 290)"/>
</clipPath>
<clipPath id="clip1">
<rect width="181.9" height="505.17" fill="white" transform="translate(64 251)"/>
</clipPath>
<clipPath id="clip2">
<rect width="143.11" height="293.29" fill="white" transform="translate(246 463)"/>
</clipPath>
<clipPath id="clip3">
<rect width="467.51" height="65.85" fill="white" transform="translate(37 123)"/>
</clipPath>
</defs>
</svg>
