<svg width="745" height="595" viewBox="0 0 745 595" fill="none" xmlns="http://www.w3.org/2000/svg">
<g clip-path="url(#clip0)">
<path d="M332.041 490.91C366.895 490.91 395.151 484.664 395.151 476.96C395.151 469.255 366.895 463.01 332.041 463.01C297.186 463.01 268.931 469.255 268.931 476.96C268.931 484.664 297.186 490.91 332.041 490.91Z" fill="black"/>
<path d="M332.041 476.96L296.591 587.91" stroke="black" stroke-width="4" stroke-miterlimit="10" stroke-linecap="round"/>
<path d="M332.04 476.96L367.49 587.91" stroke="black" stroke-width="4" stroke-miterlimit="10" stroke-linecap="round"/>
<path d="M308.23 551.48L347.75 526.14" stroke="black" stroke-width="2" stroke-miterlimit="10" stroke-linecap="round"/>
<path d="M316.17 526.14L355.7 551.48" stroke="black" stroke-width="2" stroke-miterlimit="10" stroke-linecap="round"/>
<path d="M394.15 356.86C393.99 361.78 394.06 379.01 393.25 386.38" stroke="#1F161E" stroke-miterlimit="10" stroke-linecap="round"/>
<path d="M191.12 138.96C191.12 135.464 188.286 132.63 184.79 132.63C181.294 132.63 178.46 135.464 178.46 138.96V160.81C178.46 164.306 181.294 167.14 184.79 167.14C188.286 167.14 191.12 164.306 191.12 160.81V138.96Z" fill="black"/>
<path d="M184.791 203.87C191.805 203.87 197.491 198.184 197.491 191.17C197.491 184.156 191.805 178.47 184.791 178.47C177.777 178.47 172.091 184.156 172.091 191.17C172.091 198.184 177.777 203.87 184.791 203.87Z" fill="#FBDC8E"/>
<path d="M609.37 342H615.37C616 341.997 616.604 341.746 617.049 341.3C617.495 340.854 617.747 340.25 617.75 339.62V302.74C617.75 302.427 617.689 302.118 617.569 301.829C617.449 301.541 617.272 301.279 617.049 301.06L609.469 293.48C609.249 293.258 608.988 293.082 608.699 292.962C608.411 292.842 608.102 292.78 607.789 292.78H585.4C584.769 292.782 584.165 293.034 583.719 293.48C583.274 293.926 583.022 294.529 583.02 295.16V298.72" fill="#FBDC8E"/>
<path d="M88.0608 430C107.061 433.6 103.671 547 67.2008 540.14C32.7608 533.6 64.8808 425.59 88.0608 430Z" fill="black"/>
<path d="M4.6404 444C19.7604 435.44 83.0504 515.08 54.1004 531.46C26.7504 547 -13.7696 454.44 4.6404 444Z" fill="#FBDC8E"/>
<path d="M81.6904 594.92H43.5104C41.9726 594.92 40.4889 594.352 39.3432 593.326C38.1975 592.301 37.4702 590.888 37.3004 589.36L32.4804 546.08C32.3759 545.202 32.4585 544.312 32.7228 543.469C32.9871 542.625 33.427 541.847 34.0137 541.186C34.6003 540.524 35.3204 539.995 36.1265 539.632C36.9326 539.269 37.8064 539.081 38.6904 539.08H86.3104C87.1874 539.081 88.0544 539.266 88.8551 539.623C89.6558 539.981 90.3723 540.503 90.958 541.156C91.5437 541.808 91.9855 542.577 92.2547 543.412C92.5239 544.246 92.6144 545.128 92.5204 546L87.9104 589.28C87.7568 590.824 87.0354 592.255 85.8862 593.297C84.737 594.34 83.2417 594.918 81.6904 594.92Z" fill="#969696"/>
<path d="M98.7907 385.84C113.261 390.04 102.171 477.57 74.4607 469.51C48.3007 461.91 81.1807 380.72 98.7907 385.84Z" fill="#AB8DE5"/>
<path d="M122.65 455.48C132.65 464.1 91.9703 530.04 72.7503 513.48C54.6003 497.91 110.44 445 122.65 455.48Z" fill="#FBDC8E"/>
<path d="M62.7003 394.94C84.3603 394.94 104.19 533.24 62.7003 533.24C23.5203 533.24 36.3303 394.94 62.7003 394.94Z" fill="#78E5E1"/>
<path d="M100.71 529.72H24.51C22.2732 529.72 20.46 531.533 20.46 533.77V541.15C20.46 543.387 22.2732 545.2 24.51 545.2H100.71C102.947 545.2 104.76 543.387 104.76 541.15V533.77C104.76 531.533 102.947 529.72 100.71 529.72Z" fill="#D8D8D8"/>
<path d="M599.291 298.72H577.291C576.939 298.72 576.589 298.79 576.263 298.925C575.938 299.06 575.642 299.259 575.393 299.509C575.144 299.759 574.947 300.055 574.812 300.382C574.678 300.708 574.61 301.057 574.611 301.41V345.21C574.611 345.922 574.893 346.605 575.396 347.109C575.898 347.613 576.58 347.898 577.291 347.9H606.681C607.393 347.898 608.075 347.613 608.577 347.109C609.079 346.605 609.361 345.922 609.361 345.21V308.81C609.363 308.458 609.294 308.109 609.161 307.783C609.027 307.457 608.83 307.16 608.581 306.91L601.181 299.51C600.681 299.007 600.001 298.723 599.291 298.72Z" fill="#D8D8D8"/>
<path d="M609.37 307.76H601.9C601.503 307.76 601.121 307.602 600.84 307.321C600.558 307.04 600.4 306.658 600.4 306.26V298.72" fill="#969696"/>
<path d="M617.781 301.83H610.311C609.911 301.827 609.529 301.667 609.246 301.385C608.963 301.102 608.803 300.719 608.801 300.32V292.78" fill="#64CCC4"/>
<path d="M574.641 248.65H523.081C521.407 248.65 520.051 250.006 520.051 251.68V268.52C520.051 270.193 521.407 271.55 523.081 271.55H574.641C576.314 271.55 577.671 270.193 577.671 268.52V251.68C577.671 250.006 576.314 248.65 574.641 248.65Z" fill="#78E5E1"/>
<path d="M548.85 287.25L555.79 266.23H541.91L548.85 287.25Z" fill="#78E5E1"/>
<path d="M535.101 254.75L529.281 264.82H540.911L535.101 254.75Z" fill="white"/>
<path d="M562.611 264.82L568.431 254.75H556.791L562.611 264.82Z" fill="white"/>
<path d="M548.85 264.16C551.264 264.16 553.22 262.203 553.22 259.79C553.22 257.376 551.264 255.42 548.85 255.42C546.437 255.42 544.48 257.376 544.48 259.79C544.48 262.203 546.437 264.16 548.85 264.16Z" fill="white"/>
<path d="M544.361 200.12H510.521C509.058 200.12 507.871 201.307 507.871 202.77V223.23C507.871 224.694 509.058 225.88 510.521 225.88H544.361C545.825 225.88 547.011 224.694 547.011 223.23V202.77C547.011 201.307 545.825 200.12 544.361 200.12Z" fill="#D8D8D8"/>
<path d="M509.1 200.93L527.44 213" stroke="#969696" stroke-width="0.82" stroke-linecap="round" stroke-linejoin="round"/>
<path d="M547.011 200.12L527.441 213" stroke="#969696" stroke-width="0.82" stroke-linecap="round" stroke-linejoin="round"/>
<path d="M547.01 205.72C550.103 205.72 552.61 203.213 552.61 200.12C552.61 197.027 550.103 194.52 547.01 194.52C543.917 194.52 541.41 197.027 541.41 200.12C541.41 203.213 543.917 205.72 547.01 205.72Z" fill="#FBDC8E"/>
<path d="M547.989 201.98H547.326V197.585L545.997 198.073V197.475L547.886 196.765H547.989V201.98Z" fill="white"/>
<path d="M743.431 215.83H597.431C596.752 215.83 596.201 216.381 596.201 217.06V217.82C596.201 218.499 596.752 219.05 597.431 219.05H743.431C744.11 219.05 744.661 218.499 744.661 217.82V217.06C744.661 216.381 744.11 215.83 743.431 215.83Z" fill="#D8D8D8"/>
<path d="M659.1 151.89H650.23C648.816 151.89 647.67 153.036 647.67 154.45V213.27C647.67 214.684 648.816 215.83 650.23 215.83H659.1C660.514 215.83 661.66 214.684 661.66 213.27V154.45C661.66 153.036 660.514 151.89 659.1 151.89Z" fill="#969696"/>
<path d="M666.53 166.88H663.79C662.614 166.88 661.66 167.834 661.66 169.01V213.7C661.66 214.876 662.614 215.83 663.79 215.83H666.53C667.707 215.83 668.66 214.876 668.66 213.7V169.01C668.66 167.834 667.707 166.88 666.53 166.88Z" fill="#D8D8D8"/>
<path d="M673.6 166.88H670.72C669.582 166.88 668.66 167.802 668.66 168.94V213.77C668.66 214.908 669.582 215.83 670.72 215.83H673.6C674.738 215.83 675.66 214.908 675.66 213.77V168.94C675.66 167.802 674.738 166.88 673.6 166.88Z" fill="#969696"/>
<path d="M678.677 170.384L676.314 171.468C675.21 171.975 674.725 173.281 675.232 174.386L693.82 214.873C694.327 215.977 695.633 216.461 696.737 215.954L699.1 214.869C700.204 214.362 700.689 213.056 700.182 211.952L681.594 171.465C681.087 170.361 679.781 169.877 678.677 170.384Z" fill="#D8D8D8"/>
<path d="M654.66 199.65C656.819 199.65 658.57 197.9 658.57 195.74C658.57 193.581 656.819 191.83 654.66 191.83C652.501 191.83 650.75 193.581 650.75 195.74C650.75 197.9 652.501 199.65 654.66 199.65Z" fill="#D8D8D8"/>
<path d="M658.2 201.99H651.12C650.601 201.99 650.18 202.411 650.18 202.93C650.18 203.449 650.601 203.87 651.12 203.87H658.2C658.719 203.87 659.14 203.449 659.14 202.93C659.14 202.411 658.719 201.99 658.2 201.99Z" fill="#D8D8D8"/>
<path d="M658.2 206.8H651.12C650.601 206.8 650.18 207.221 650.18 207.74C650.18 208.259 650.601 208.68 651.12 208.68H658.2C658.719 208.68 659.14 208.259 659.14 207.74C659.14 207.221 658.719 206.8 658.2 206.8Z" fill="#D8D8D8"/>
<path d="M586.561 303.24H579.481C578.962 303.24 578.541 303.661 578.541 304.18C578.541 304.699 578.962 305.12 579.481 305.12H586.561C587.08 305.12 587.501 304.699 587.501 304.18C587.501 303.661 587.08 303.24 586.561 303.24Z" fill="#969696"/>
<path d="M586.561 307.76H579.481C578.962 307.76 578.541 308.181 578.541 308.7C578.541 309.219 578.962 309.64 579.481 309.64H586.561C587.08 309.64 587.501 309.219 587.501 308.7C587.501 308.181 587.08 307.76 586.561 307.76Z" fill="#969696"/>
<path d="M604.921 315.49H579.071C578.552 315.49 578.131 315.911 578.131 316.43C578.131 316.949 578.552 317.37 579.071 317.37H604.921C605.44 317.37 605.861 316.949 605.861 316.43C605.861 315.911 605.44 315.49 604.921 315.49Z" fill="#969696"/>
<path d="M604.921 319.93H579.071C578.552 319.93 578.131 320.351 578.131 320.87C578.131 321.389 578.552 321.81 579.071 321.81H604.921C605.44 321.81 605.861 321.389 605.861 320.87C605.861 320.351 605.44 319.93 604.921 319.93Z" fill="#969696"/>
<path d="M604.921 324.37H579.071C578.552 324.37 578.131 324.791 578.131 325.31C578.131 325.829 578.552 326.25 579.071 326.25H604.921C605.44 326.25 605.861 325.829 605.861 325.31C605.861 324.791 605.44 324.37 604.921 324.37Z" fill="#969696"/>
<path d="M665.89 174.27C665.89 173.867 665.563 173.54 665.16 173.54C664.757 173.54 664.43 173.867 664.43 174.27V208.43C664.43 208.833 664.757 209.16 665.16 209.16C665.563 209.16 665.89 208.833 665.89 208.43V174.27Z" fill="#969696"/>
<path d="M635.18 217.44H628.92C627.544 217.44 626.43 218.555 626.43 219.93C626.43 221.305 627.544 222.42 628.92 222.42H635.18C636.555 222.42 637.67 221.305 637.67 219.93C637.67 218.555 636.555 217.44 635.18 217.44Z" fill="#D8D8D8"/>
<path d="M711.941 217.44H705.681C704.306 217.44 703.191 218.555 703.191 219.93C703.191 221.305 704.306 222.42 705.681 222.42H711.941C713.317 222.42 714.431 221.305 714.431 219.93C714.431 218.555 713.317 217.44 711.941 217.44Z" fill="#D8D8D8"/>
<path d="M475.651 222.31H439.141C432.513 222.31 427.141 227.683 427.141 234.31V252.12C427.141 258.747 432.513 264.12 439.141 264.12H475.651C482.278 264.12 487.651 258.747 487.651 252.12V234.31C487.651 227.683 482.278 222.31 475.651 222.31Z" fill="#D8D8D8"/>
<path d="M448.76 229.04H439.66V257.39H448.76V229.04Z" fill="#AB8DE5"/>
<path d="M461.951 247.9H452.851V257.4H461.951V247.9Z" fill="#AB8DE5"/>
<path d="M475.13 239.9H466.03V257.39H475.13V239.9Z" fill="#AB8DE5"/>
<path d="M184.79 152.88C179.761 152.879 174.781 153.868 170.134 155.792C165.488 157.715 161.265 160.536 157.709 164.091C154.152 167.647 151.331 171.868 149.406 176.515C147.481 181.161 146.49 186.141 146.49 191.17H223.09C223.09 186.141 222.1 181.161 220.175 176.515C218.25 171.868 215.428 167.647 211.872 164.091C208.315 160.536 204.093 157.715 199.446 155.792C194.8 153.868 189.819 152.879 184.79 152.88Z" fill="#AB8DE5"/>
<path d="M184.79 139.92V1" stroke="black" stroke-width="2" stroke-linecap="round" stroke-linejoin="round"/>
<path d="M485.191 574.68C485.191 577.05 483.801 592 486.571 593.38C489.341 594.76 519.791 595.6 521.171 594.21C522.551 592.82 523.381 589.92 522.171 589.09C520.961 588.26 509.171 585.91 507.571 584.8C505.971 583.69 503.761 577.8 504.571 574.68" fill="#1F161E"/>
<path d="M394.15 379.25L411.29 373.1C410.55 341.83 403.24 271.96 392.86 261.57C390.42 259.14 342.16 254.9 333.55 254.9C282.17 254.9 266.93 260.76 263.06 264.64C251.06 276.64 247.32 332.24 247.32 351.71C247.32 371.18 302.32 381.28 302.32 381.28L366.79 385.71C366.79 385.71 380.93 387.17 393.16 387.89C393.43 384.14 394.15 379.25 394.15 379.25Z" fill="#78E5E1"/>
<path d="M445.221 397.38C449.911 395.99 496.551 388.38 506.711 398.38C516.871 408.38 548.851 551.75 548.851 555.05H523.101L488.341 480.24" fill="#1F161E"/>
<path d="M275.41 384.63C274.24 390.48 267.21 396.76 267.21 428.63C267.21 472.7 303.31 473.63 316.27 473.63C356.65 473.63 421.98 461.63 426.39 459.43C429.32 464.33 483.25 574.43 483.5 576.89H508.33C508.33 576.89 492.94 412.17 465.17 393.49C456.15 387.49 296.12 381.07 275.41 384.63Z" fill="#55B79D"/>
<path d="M420.811 352.41C414.291 352.41 408.911 353.96 394.151 356.86L393.381 385.1C407.381 379.46 410.631 371.62 414.691 371.62C424.831 371.62 430.131 376.85 436.121 376.85C440.301 376.85 447.821 373.57 447.821 369.11C447.821 359.77 428.891 352.41 420.811 352.41Z" fill="#F8CDBA"/>
<path d="M524.56 553.07C524.56 555.45 523.17 570.39 525.94 571.78C528.71 573.17 559.16 573.99 560.54 572.61C561.92 571.23 562.75 568.32 561.54 567.49C560.33 566.66 548.54 564.3 546.94 563.19C545.34 562.08 543.13 556.19 543.94 553.07" fill="#1F161E"/>
<path d="M342.64 261.55C342.64 265.32 320.75 265.43 320.75 261.55V230.89H342.64V261.55Z" fill="#F8CDBA"/>
<path d="M335.51 241C333.51 241 320.75 246.64 320.75 249.79V233.15C323.93 233.15 335.51 241 335.51 241Z" fill="#1F161E"/>
<path d="M339.74 242.3C354.376 242.3 366.24 230.435 366.24 215.8C366.24 201.164 354.376 189.3 339.74 189.3C325.105 189.3 313.24 201.164 313.24 215.8C313.24 230.435 325.105 242.3 339.74 242.3Z" fill="#F8CDBA"/>
<path d="M367.09 195C363.81 200.21 356.95 202.6 349.52 202.6C343.19 202.6 333.97 200.76 327.41 204.5C323.86 206.5 319.79 211.05 318.97 220.16C318.97 221.72 317.2 227.77 317.2 229.72C317.2 231.05 315.7 231.92 313.2 231.92C311.91 231.92 309.36 229.83 309.36 226.64C309.36 222.95 310.83 221.64 310.83 218.51C310.83 215.38 307 212.37 307 203.67C307 191.14 315 183.42 320.66 183.42C325.82 183.42 327.44 184.62 328.09 185.13C328.09 173.74 343.09 168.54 349.04 168.54C355.84 168.54 359.04 171.33 359.04 174.88C359.04 180.54 356.34 185.35 354.97 186.43C358.071 183.64 362.099 182.104 366.27 182.12C374.06 182.12 376.68 187.24 376.68 190.74C376.68 198.35 367.55 205.4 364.15 205.4C363.295 203.59 362.291 201.854 361.15 200.21" fill="#1F161E"/>
<path d="M319.791 224.95C322.911 224.95 325.441 222.42 325.441 219.3C325.441 216.18 322.911 213.65 319.791 213.65C316.67 213.65 314.141 216.18 314.141 219.3C314.141 222.42 316.67 224.95 319.791 224.95Z" fill="#F8CDBA"/>
<path d="M366.5 220.66C368.919 220.66 370.88 219.639 370.88 218.38C370.88 217.121 368.919 216.1 366.5 216.1C364.081 216.1 362.12 217.121 362.12 218.38C362.12 219.639 364.081 220.66 366.5 220.66Z" fill="#FA9E9F"/>
<path d="M338.95 220.66C341.369 220.66 343.33 219.639 343.33 218.38C343.33 217.121 341.369 216.1 338.95 216.1C336.531 216.1 334.57 217.121 334.57 218.38C334.57 219.639 336.531 220.66 338.95 220.66Z" fill="#FA9E9F"/>
<path d="M355.801 213.65C356.621 214.82 360.801 219.73 356.391 221.72" stroke="#1F161E" stroke-miterlimit="10" stroke-linecap="round"/>
<path d="M347.561 227.45C346.241 227.45 344.211 225.81 343.141 224.34" stroke="#1F161E" stroke-miterlimit="10" stroke-linecap="round"/>
<path d="M382.5 298.62C384.5 302.87 394.15 343.87 394.15 356.86" stroke="#1F161E" stroke-miterlimit="10" stroke-linecap="round"/>
<path d="M247.32 348.41C247.32 394.5 247.75 407.87 266.25 407.87C308.89 407.87 373.35 372.87 384.84 372.87C394.99 372.87 400.29 378.11 406.28 378.11C410.45 378.11 417.97 374.82 417.97 370.37C417.97 361.02 399.04 353.66 390.97 353.66C372.8 353.66 300.29 371.18 298.52 371.18C296.75 371.18 293.77 370.41 293.77 367.43C293.77 362.02 297.31 349.52 297.77 348.43L247.32 348.41Z" fill="#F8CDBA"/>
<path d="M308.421 308.21C307.201 311.72 297.691 347.99 296.591 352.41" stroke="#1F161E" stroke-miterlimit="10" stroke-linecap="round"/>
<path d="M669.459 588.747C670.178 591.481 672.978 593.116 675.712 592.397C678.447 591.678 680.081 588.878 679.362 586.143L628.164 391.401C627.445 388.666 624.645 387.032 621.91 387.751C619.175 388.47 617.541 391.27 618.26 394.004L669.459 588.747Z" fill="#969696"/>
<path d="M617.752 394.013C618.471 391.278 616.837 388.478 614.102 387.759C611.367 387.04 608.568 388.674 607.849 391.409L556.65 586.152C555.931 588.886 557.565 591.686 560.3 592.405C563.035 593.124 565.834 591.49 566.553 588.755L617.752 394.013Z" fill="#969696"/>
<path d="M547.104 394.011C547.823 391.277 546.188 388.477 543.454 387.758C540.719 387.039 537.919 388.673 537.2 391.408L486.001 586.15C485.282 588.885 486.917 591.685 489.651 592.404C492.386 593.123 495.186 591.488 495.905 588.754L547.104 394.011Z" fill="#D8D8D8"/>
<path d="M597.92 585.152C598.627 587.895 601.423 589.546 604.166 588.839C606.909 588.132 608.56 585.335 607.853 582.592L557.513 387.273C556.806 384.53 554.009 382.88 551.266 383.587C548.523 384.294 546.873 387.09 547.58 389.833L597.92 585.152Z" fill="#D8D8D8"/>
<path d="M258.682 394.016C259.401 391.282 257.767 388.482 255.032 387.763C252.297 387.044 249.497 388.678 248.778 391.413L197.58 586.155C196.861 588.89 198.495 591.69 201.229 592.408C203.964 593.127 206.764 591.493 207.483 588.759L258.682 394.016Z" fill="#969696"/>
<path d="M309.519 588.759C310.238 591.494 313.038 593.128 315.773 592.409C318.508 591.69 320.142 588.89 319.423 586.156L268.224 391.413C267.505 388.679 264.705 387.045 261.971 387.764C259.236 388.483 257.602 391.282 258.321 394.017L309.519 588.759Z" fill="#969696"/>
<path d="M649.27 378.14H154.1C151.598 378.14 149.57 380.168 149.57 382.67V388.76C149.57 391.262 151.598 393.29 154.1 393.29H649.27C651.772 393.29 653.8 391.262 653.8 388.76V382.67C653.8 380.168 651.772 378.14 649.27 378.14Z" fill="#D8D8D8"/>
<path d="M185.507 394.019C186.226 391.284 184.592 388.485 181.857 387.766C179.122 387.047 176.322 388.681 175.603 391.416L124.405 586.158C123.686 588.893 125.32 591.692 128.055 592.411C130.789 593.13 133.589 591.496 134.308 588.762L185.507 394.019Z" fill="#D8D8D8"/>
<path d="M236.344 588.759C237.063 591.494 239.862 593.128 242.597 592.409C245.332 591.69 246.966 588.89 246.247 586.156L195.048 391.413C194.329 388.679 191.53 387.045 188.795 387.764C186.06 388.483 184.426 391.282 185.145 394.017L236.344 588.759Z" fill="#D8D8D8"/>
<path d="M520.281 378.14H427.771L444.531 320.5C444.949 319.109 445.806 317.891 446.974 317.028C448.142 316.165 449.558 315.702 451.011 315.71H529.511C530.542 315.693 531.562 315.918 532.491 316.365C533.42 316.813 534.232 317.472 534.861 318.288C535.491 319.105 535.921 320.058 536.117 321.07C536.313 322.083 536.269 323.127 535.991 324.12L520.281 378.14Z" fill="black"/>
<path d="M485.381 352.58C488.507 352.58 491.041 350.046 491.041 346.92C491.041 343.794 488.507 341.26 485.381 341.26C482.255 341.26 479.721 343.794 479.721 346.92C479.721 350.046 482.255 352.58 485.381 352.58Z" fill="white"/>
<path d="M438.761 374.09H373.851V378.14H438.761V374.09Z" fill="black"/>
</g>
<defs>
<clipPath id="clip0">
<rect width="744.66" height="594.92" fill="white"/>
</clipPath>
</defs>
</svg>
